# xmcd
#
# Track frame offsets:
#	150
#	10697
#	32387
#	51030
#	76257
#	100630
#	118985
#	132277
#	159032
#	174732
#	188190
#	214272
#	224312
#	254202
#	300457
#	318075
#
# Disc length: 4448 seconds
#
# Revision: 0
# Processed by: cddbd v1.5.1PL2 Copyright (c) Steve Scherf et al.
# Submitted via: dBpowerAMP V4.0
#
DISCID=cf115e10
DTITLE=Various Artist - The Black Box [CD2)
DYEAR=1988
DGENRE=R&B
TTITLE0=Arthur Conley - Sweet Soul Music
TTITLE1=Al B. Sure - Killing Me Softly
TTITLE2=Ben E.King - Supernatural Thing (Part I)
TTITLE3=Colonel Abrams - Nameless
TTITLE4=Gladys Knight and The Pips - Love Overboard
TTITLE5=New Edition - Your Are Not My Kind Of Girl
TTITLE6=Aretha Franklin - Don't Play That Song
TTITLE7=Bobby Brown - Roni
TTITLE8=The Staple Singers - Let's Do It Again
TTITLE9=Don Covay - See-Saw
TTITLE10=Mac Band - Roses Are Red
TTITLE11=The Coasters - I Must Be Dreaming
TTITLE12=Pebbles - Girlfriend
TTITLE13=George Benson - On Broadway
TTITLE14=Patti LaBelle and Bill Champlin - The Last Unbroken Heart
TTITLE15=Chic - I Want Your Love
EXTD=
EXTT0=
EXTT1=
EXTT2=
EXTT3=
EXTT4=
EXTT5=
EXTT6=
EXTT7=
EXTT8=
EXTT9=
EXTT10=
EXTT11=
EXTT12=
EXTT13=
EXTT14=
EXTT15=
PLAYORDER=
